<?xml version="1.0" encoding="utf-8"?>
<!-- Generator: Adobe Illustrator 25.4.1, SVG Export Plug-In . SVG Version: 6.00 Build 0)  -->
<svg version="1.1" id="Layer_1" xmlns="http://www.w3.org/2000/svg" xmlns:xlink="http://www.w3.org/1999/xlink" x="0px" y="0px"
	 viewBox="0 0 155.7 51.3" style="enable-background:new 0 0 155.7 51.3;" xml:space="preserve">
<style type="text/css">
	.st0{fill:#17479E;}
	.st1{fill:#ED1B34;}
	.st2{fill:#FFC20E;}
	.st3{fill:none;}
</style>
<g>
	<g>
		<path class="st0" d="M76,14.1c0.2-0.9,0.4-1.4,0.4-1.6c0.2-0.9,0-1.7-0.6-2.4C75.1,9.3,74.3,9,73.3,9H63.2c0,0-3.5,13.7-3.6,14.1
			h11.5c1.5,0,2.5-0.7,3.1-2.3L76,14.1z M71.4,18.8c-0.2,0.6-0.3,1-0.3,1.2l0,0.1h-7.3l0.1-0.2c0.3-1.3,0.6-2.3,0.8-3.2l0.1-0.5
			c0.3-1,0.5-1.9,0.7-2.7c0.2-0.8,0.3-1.3,0.4-1.5l0-0.1h6.5c0.2,0,0.4,0.1,0.5,0.2c0.1,0.1,0.2,0.3,0.2,0.5L71.4,18.8z"/>
		<polygon class="st0" points="78.4,12.5 75.6,23.1 79,23.1 81.7,12.5 		"/>
		<path class="st0" d="M94.6,12.6h-6.2c-2.7,0.2-4.6,1.3-5.8,3.4c-0.9,1.8-1,3.5-0.4,4.9c0.3,0.7,0.7,1.2,1.2,1.5
			c0.5,0.4,1.3,0.6,2.4,0.7l2.8,0l-0.1,0.5c-0.1,0.3-0.3,0.4-0.5,0.6c-0.3,0.2-0.5,0.2-0.8,0.2h-6l-0.6,2.6h6.5c1,0,1.9-0.4,2.8-1.1
			c0.9-0.7,1.5-1.6,1.7-2.5l0.6-2.1l1.6-6.2h0L94.6,12.6z M89.4,20.4H87c-0.8,0-1.4-0.2-1.7-0.6c-0.4-0.5-0.4-1.2-0.1-2.2
			c0.2-0.6,0.6-1.2,1.2-1.7c0.6-0.5,1.4-0.7,2.3-0.8h2L89.4,20.4z"/>
		<polygon class="st0" points="96.8,12.5 94.1,23.1 97.4,23.1 100.2,12.5 		"/>
		<path class="st0" d="M105.5,12.5l0.1-0.3c0-0.1,0.2-0.7,0.5-1.9l0.4-1.4h-3.3l-2.8,10.7c-0.2,0.9,0,1.7,0.5,2.4
			c0.5,0.7,1.3,1,2.2,1h2.3l0.7-2.6h-1.6c-0.3,0-0.5-0.1-0.7-0.3c-0.1-0.2-0.2-0.4-0.2-0.6c0-0.1,0.1-0.3,0.2-0.7l0-0.1
			c0.1-0.4,0.2-0.9,0.4-1.4c0.1-0.5,0.3-1.1,0.5-1.9l0-0.2h2.7l0.7-2.8H105.5z"/>
		<path class="st0" d="M120.9,19.6c-0.2,0.9,0,1.7,0.6,2.4c0.6,0.7,1.3,1,2.3,1h2.4l0.7-2.6h-1.8c-0.3,0-0.5-0.1-0.7-0.3
			c-0.2-0.2-0.2-0.4-0.2-0.6L127.2,9h-3.3L120.9,19.6z"/>
		<path class="st0" d="M82.1,9.9c-0.2,0.8-1,1.3-1.9,1.2c-0.9-0.2-1.4-1-1.2-1.8c0.2-0.8,1-1.3,1.9-1.2C81.8,8.3,82.3,9.1,82.1,9.9"
			/>
		<path class="st0" d="M100.6,10c-0.2,0.8-1,1.3-1.9,1.2c-0.9-0.2-1.4-1-1.2-1.8c0.2-0.8,1-1.3,1.9-1.2
			C100.2,8.4,100.8,9.2,100.6,10"/>
		<polygon class="st0" points="105,32.6 102.3,43.2 105.6,43.2 108.4,32.6 		"/>
		<path class="st0" d="M108.8,30.1c-0.2,0.8-1,1.3-1.9,1.2c-0.9-0.2-1.4-1-1.2-1.8c0.2-0.8,1-1.3,1.9-1.2
			C108.4,28.5,109,29.3,108.8,30.1"/>
		<path class="st0" d="M96.8,32.7c-0.2,0-0.4,0-0.5,0c-2.3,0-3.7,0.9-4.3,2.8c-0.2,1.1,0,2,0.5,2.6c0.6,0.6,1.4,1,2.5,1h1.7
			c0.5,0,0.9,0.1,1.1,0.3c0.2,0.1,0.2,0.3,0.2,0.6c-0.1,0.4-0.4,0.8-1.2,0.8c-0.1,0-0.1,0-0.2,0h-5.8l-0.7,2.6h6.6
			c0.1,0,0.2,0,0.3,0c2.4,0,3.7-1,4.2-2.9c0.2-1.1,0.1-2-0.3-2.7c-0.4-0.6-1.3-1-2.6-1l-1.5,0c-0.4,0-0.8,0-1-0.1
			c-0.3-0.1-0.5-0.4-0.4-0.7c0.1-0.3,0.3-0.7,1-0.7h6l0.6-2.5H96.8z"/>
		<path class="st0" d="M109.4,35.8c-0.9,1.8-1,3.5-0.4,5c0.3,0.7,0.7,1.2,1.2,1.6c0.5,0.4,1.4,0.7,2.4,0.8c0.7,0.1,1.4,0.1,1.9,0
			c2.8-0.1,4.7-1.2,5.9-3.2c0.9-1.8,1-3.5,0.4-5c-0.3-0.7-0.7-1.2-1.2-1.6c-0.5-0.4-1.4-0.6-2.4-0.7c-0.4,0-0.8,0-1.2,0
			c-0.3,0-0.6,0-0.8,0C112.5,32.7,110.6,33.8,109.4,35.8 M112,37.5c0.2-0.6,0.6-1.2,1.2-1.6c0.8-0.5,1.8-0.7,2.9-0.6
			c1,0.1,1.6,0.4,1.8,0.9c0.2,0.5,0.2,1.1,0,2c-0.2,0.7-0.6,1.2-1.2,1.6c-0.6,0.4-1.4,0.6-2.7,0.6c-0.1,0-0.2,0-0.3,0
			c-0.8-0.1-1.4-0.3-1.7-0.8C111.7,39.2,111.7,38.5,112,37.5"/>
		<path class="st0" d="M132.9,33.7c-0.6-0.7-1.3-1-2.3-1l-7,0l-2.7,10.5h3.3l2.1-7.9h3c0.3,0,0.5,0.1,0.7,0.3
			c0.1,0.2,0.2,0.4,0.2,0.6l-1.9,7h3.3l1.9-7.1C133.6,35.2,133.4,34.4,132.9,33.7"/>
		<path class="st0" d="M147.1,39.7c-0.2,0.9,0,1.7,0.6,2.4c0.6,0.7,1.3,1,2.3,1h2.4l0.7-2.6h-1.8c-0.3,0-0.5-0.1-0.7-0.3
			c-0.2-0.2-0.2-0.4-0.2-0.6l3.5-10.6h-3.3L147.1,39.7z"/>
		<path class="st0" d="M78.7,29.1c-1,4.1-2.1,8.1-3.2,12.2c0,0.1-0.1,0.2-0.1,0.2c-0.2,0.6-0.8,1.2-1.4,1.4c-0.1,0-0.2,0.1-0.3,0.1
			c-0.1,0-0.4,0.1-0.8,0.1c-0.8,0-1.6-0.4-2.1-0.9c-0.1-0.1-0.1-0.2-0.2-0.3c-1.7-3.1-3.4-6.1-5.1-9.2c-0.1,0.5-0.3,1-0.4,1.4
			l-2.3,9h-3.2l3.2-12.2c0.1-0.2,0.2-0.6,0.6-1c0.2-0.2,0.6-0.5,1.2-0.7c0.7-0.2,1.3-0.1,1.6,0c0.7,0.2,1.2,0.6,1.3,0.8l1.5,2.5
			l4,6.6l2.5-10.1H78.7z"/>
		<path class="st0" d="M140.6,32.7c-2.7,0.2-4.6,1.3-5.8,3.4c-0.9,1.8-1,3.5-0.4,4.9c0.3,0.7,0.7,1.2,1.2,1.6
			c0.5,0.4,1.3,0.6,2.4,0.7l0.4,0c0.9,0,1.7-0.2,2.5-0.4l-0.1,0.5h3.3l1.3-4.9c0.1-0.2,0.2-0.5,0.2-0.8l1.2-4.9H140.6z M142.4,38
			c-0.4,1.5-1.7,2.5-3.2,2.5c-0.8,0-1.4-0.2-1.7-0.6c-0.4-0.5-0.4-1.2-0.1-2.2c0.2-0.6,0.6-1.2,1.2-1.7c0.6-0.5,1.4-0.8,2.4-0.8h2
			L142.4,38z"/>
		<path class="st0" d="M84.5,32.7c-2.7,0.2-4.6,1.3-5.8,3.4c-0.9,1.8-1,3.5-0.4,4.9c0.3,0.7,0.7,1.2,1.2,1.6
			c0.5,0.4,1.3,0.6,2.4,0.7l0.4,0c0.9,0,1.7-0.2,2.5-0.4l-0.1,0.5h3.3l1.3-4.9c0.1-0.2,0.2-0.5,0.2-0.8l1.2-4.9H84.5z M86.2,38
			c-0.4,1.5-1.7,2.5-3.2,2.5c-0.8,0-1.4-0.2-1.7-0.6c-0.4-0.5-0.4-1.2-0.1-2.2c0.2-0.6,0.6-1.2,1.2-1.7c0.6-0.5,1.4-0.8,2.4-0.8h2
			L86.2,38z"/>
		<path class="st0" d="M114.6,12.5c-2.7,0.2-4.6,1.3-5.8,3.4c-0.9,1.8-1,3.5-0.4,4.9c0.3,0.7,0.7,1.2,1.2,1.6
			c0.5,0.4,1.3,0.6,2.4,0.7l0.4,0c0.9,0,1.7-0.2,2.5-0.4l-0.1,0.5h3.3l1.3-4.9c0.1-0.2,0.2-0.5,0.2-0.8l1.2-4.9H114.6z M116.3,17.8
			c-0.4,1.5-1.7,2.5-3.2,2.5c-0.8,0-1.4-0.2-1.7-0.6c-0.4-0.5-0.4-1.2-0.1-2.2c0.2-0.6,0.6-1.2,1.2-1.7c0.6-0.5,1.4-0.8,2.4-0.8h2
			L116.3,17.8z"/>
	</g>
	<g>
		<path class="st0" d="M35.5,25.4c0.1-2.9-2.4-5.4-5.6-5.6c-4-0.2-5.7,2.1-6.4,3.6c0.1,0,0.2,0,0.3,0c0.2,0,0.4,0.1,0.6,0.1
			c0.2,0,0.4,0.1,0.6,0.2c0.8,0.3,1.5,0.7,2.1,1.3c0.6,0.6,1.1,1.2,1.4,1.9c0.1,0.2,0.1,0.4,0.2,0.5c0,0.2,0.1,0.4,0.1,0.6
			c0,0.2,0,0.4,0.1,0.6c0,0.2,0,0.4,0,0.6c-0.5-1.4-1.4-2.5-2.5-3.1c-0.6-0.3-1.1-0.5-1.7-0.6c-0.2,0-0.3,0-0.4,0
			c-0.2,0-0.3,0-0.4,0l-0.4,0c-0.1,0-0.3,0.1-0.4,0.1c-1.1,0.2-2.1,0.9-2.8,1.8c0,0,0,0,0,0c-0.4,0.5-0.6,1.1-0.7,1.8
			c0,0.1,0,0.2,0,0.3c-0.2,3,2.3,5.6,5.6,5.8c1.4,0.1,2.7-0.3,3.8-1c1,0.8,2.2,1.4,3.7,1.5c3.3,0.2,6.1-2.1,6.3-5.1
			C38.7,28.3,37.4,26.4,35.5,25.4z"/>
		<path class="st1" d="M25.7,40.8c-0.8-0.5-1.5-1.1-2.3-1.6l-2.3-1.6c1.3,1.4,2.6,2.7,4,4c0.2,0.2,0.4,0.3,0.6,0.5
			c0.5-0.1,1-0.1,1.5-0.2C26.7,41.5,26.2,41.1,25.7,40.8z"/>
		<path class="st0" d="M15.7,50.1c-0.1-1.5-0.2-3-0.3-4.5c-0.3-0.1-0.6-0.1-0.8-0.2C14.8,47,15.2,48.5,15.7,50.1z"/>
		<path class="st1" d="M17,5.4c1.5,0.7,2.9,1.4,4.3,2.2c0.2-0.2,0.4-0.5,0.6-0.7C20.3,6.3,18.7,5.8,17,5.4z"/>
		<path class="st0" d="M42,24.9c-0.1,0.9-0.2,1.9-0.2,2.8l-0.3,2.8c0.5-1.8,1-3.6,1.4-5.4c0-0.1,0-0.2,0.1-0.3
			c-0.3-0.4-0.6-0.8-0.9-1.1C42,24,42,24.5,42,24.9z"/>
		<path class="st2" d="M55.1,29.2c-1.3,0.9-2.7,1.8-4,2.7c0.1,0.3,0.2,0.6,0.3,0.9C52.7,31.6,54,30.5,55.1,29.2z"/>
		<path class="st1" d="M51.5,33.2c0-0.1-0.1-0.3-0.1-0.4c-0.1-0.3-0.2-0.6-0.3-0.9c-1.2-3.4-3-6.4-5.3-9.1c-0.7-0.8-1.4-1.6-2.1-2.3
			c-0.5-0.5-1-1-1.5-1.5c-0.1-0.1-0.3-0.3-0.4-0.4c-0.7-0.6-1.5-1.3-2.2-1.8c-0.8-0.6-1.5-1.2-2.3-1.7c-1.8-1.2-3.6-2.4-5.4-3.5
			c-1.4-0.8-2.8-1.6-4.3-2.3C27,9,26.4,8.7,25.8,8.5c-0.2,0.2-0.4,0.4-0.6,0.6c-0.2,0.2-0.3,0.3-0.5,0.5c2,1.2,4,2.5,5.9,3.9
			c1.7,1.2,3.3,2.5,4.9,3.8c0.7,0.6,1.4,1.2,2.1,1.8c0.7,0.6,1.3,1.2,2,1.9c0.8,0.9,1.6,1.8,2.4,2.7c0.3,0.4,0.6,0.7,0.9,1.1
			c0.1,0.1,0.1,0.2,0.2,0.2c2,2.8,3.6,5.8,4.5,8.9c0,0.1,0.1,0.2,0.1,0.3c0.1,0.4,0.2,0.7,0.3,1.1c0.3,1.3,0.4,2.6,0.4,3.9
			c0,0.8-0.1,1.6-0.2,2.4c-0.1,0.8-0.3,1.5-0.6,2.2c-0.3,0.7-0.7,1.3-1.1,1.8c-0.5,0.5-1,0.9-1.7,1.2c-1.3,0.6-2.9,0.7-4.6,0.5
			c-0.8-0.1-1.7-0.3-2.5-0.5c-0.8-0.2-1.6-0.5-2.3-0.8c-0.1,0-0.1,0-0.2-0.1c-1.4-0.5-2.8-1.2-4.2-1.9c-0.7,0.2-1.4,0.4-2.1,0.6
			c0.2,0.1,0.3,0.3,0.5,0.4c1.5,1.1,3,2.2,4.7,3.1c0,0,0.1,0.1,0.1,0.1c1.7,0.9,3.5,1.7,5.5,2.1c1,0.2,2,0.3,3.1,0.3
			c1.1,0,2.2-0.2,3.3-0.6c1.1-0.4,2.1-1.1,2.9-1.9c0.8-0.8,1.5-1.8,1.9-2.8c0.9-2,1.3-4.1,1.3-6.2C52.4,37.2,52.1,35.1,51.5,33.2z"
			/>
		<path class="st3" d="M13.6,34C13.6,34,13.6,34,13.6,34C13.6,34,13.6,34,13.6,34C13.6,34,13.6,34,13.6,34
			C13.6,33.9,13.6,33.9,13.6,34c0-2.2,0.1-4.3,0.3-6.3c0.1-0.9,0.2-1.9,0.3-2.8c0.1-0.9,0.3-1.9,0.5-2.8c0,0,0-0.1,0-0.1
			c-1.4,0.9-2.7,1.8-4,2.8c-0.7,0.6-1.4,1.2-2,1.8c-0.6,0.6-1.2,1.3-1.7,1.9c-1,1.3-1.7,2.8-1.8,4.2c-0.1,0.7,0,1.4,0.2,2
			c0.2,0.7,0.6,1.3,1,1.9c0.5,0.6,1,1.2,1.6,1.7c0.6,0.5,1.3,1,2,1.4c1.2,0.7,2.5,1.2,3.8,1.6c-0.1-0.7-0.1-1.5-0.2-2.2
			C13.6,37.3,13.6,35.7,13.6,34z"/>
		<path class="st2" d="M47.8,34.2c0-0.1-0.1-0.2-0.1-0.3c-2.7,1.5-5.4,2.8-8.2,4c-1.3,0.6-2.6,1.1-3.9,1.6c-0.9,0.3-1.7,0.6-2.6,0.9
			c-0.9,0.3-1.7,0.5-2.6,0.8c-1.1,0.3-2.2,0.5-3.2,0.7c-0.5,0.1-1,0.2-1.5,0.2c-0.2,0-0.3,0-0.5,0.1c-3.3,0.4-6.7,0.3-9.8-0.5
			c-0.2,0-0.4-0.1-0.6-0.1c-0.3-0.1-0.6-0.2-0.9-0.2c-1.3-0.4-2.6-0.9-3.8-1.6c-0.7-0.4-1.4-0.9-2-1.4c-0.6-0.5-1.2-1.1-1.6-1.7
			c-0.5-0.6-0.8-1.2-1-1.9c-0.2-0.7-0.3-1.3-0.2-2c0.1-1.4,0.8-2.9,1.8-4.2c0.5-0.7,1.1-1.3,1.7-1.9c0.6-0.6,1.3-1.2,2-1.8
			c1.2-1,2.6-1.9,4-2.8c0.1-0.7,0.3-1.4,0.5-2.1c-0.3,0.1-0.5,0.2-0.8,0.3c-1.8,0.7-3.5,1.6-5.1,2.6c-1.6,1-3.2,2.2-4.6,3.7
			C4.1,27.2,3.5,28,3,29c-0.5,0.9-0.9,2-1.1,3.2c-0.2,1.1-0.1,2.4,0.2,3.5c0.3,1.1,0.8,2.2,1.4,3.1c1.3,1.8,2.9,3.2,4.7,4.3
			c1.8,1.1,3.7,1.8,5.7,2.3c0.2,0.1,0.5,0.1,0.7,0.2c0.3,0.1,0.6,0.1,0.8,0.2c3.4,0.6,6.9,0.5,10.2-0.1c1.1-0.2,2.2-0.4,3.3-0.7
			c0.7-0.2,1.4-0.4,2.1-0.6c0.1,0,0.2-0.1,0.3-0.1c0.9-0.3,1.8-0.6,2.7-1c0.9-0.4,1.8-0.7,2.6-1.1c1.5-0.7,2.9-1.4,4.3-2.2
			c1.9-1,3.8-2.2,5.6-3.4c0.5-0.4,1-0.7,1.5-1.1C48,35,47.9,34.6,47.8,34.2z"/>
		<path class="st2" d="M20.2,19c0.8-0.4,1.7-0.8,2.5-1.2l2.6-1.1c-1.8,0.4-3.6,0.9-5.4,1.5c-0.2,0.1-0.4,0.1-0.6,0.2
			c-0.2,0.5-0.4,0.9-0.5,1.4C19.2,19.5,19.7,19.3,20.2,19z"/>
		<path class="st0" d="M44.2,13.7c-0.1-1.9-0.3-3.9-1-5.8c-0.3-1-0.7-1.9-1.3-2.9c-0.6-0.9-1.3-1.8-2.2-2.5c-0.9-0.7-2-1.3-3.1-1.6
			c-1.1-0.3-2.3-0.4-3.4-0.3c-2.2,0.2-4.2,0.9-6,1.9c-1.8,1-3.4,2.3-4.8,3.8c-0.2,0.2-0.4,0.4-0.5,0.6c-0.2,0.2-0.4,0.5-0.6,0.7
			c-2.2,2.6-3.8,5.7-5,8.8c-0.4,1.1-0.8,2.2-1.1,3.4c-0.2,0.7-0.4,1.4-0.5,2.1c0,0,0,0.1,0,0.1c-0.2,0.9-0.4,1.9-0.5,2.8
			c-0.1,1-0.2,1.9-0.3,2.8c-0.2,2.1-0.3,4.2-0.3,6.3c0,0,0,0,0,0c0,0,0,0,0,0.1c0,0,0,0,0,0c0,0,0,0,0,0c0,1.7,0,3.3,0.2,5
			c0.1,0.7,0.1,1.5,0.2,2.2c0.3,0.1,0.6,0.2,0.9,0.2c0.2,0,0.4,0.1,0.6,0.1c0-0.9,0-1.7,0.1-2.6c0.1-1.6,0.2-3.2,0.4-4.8
			c0.2-2.1,0.5-4.1,0.8-6.2c0.1-0.9,0.3-1.8,0.5-2.7c0.2-0.9,0.4-1.8,0.6-2.6c0.3-1,0.6-2,1-3c0.2-0.5,0.4-0.9,0.5-1.4
			c0.1-0.2,0.2-0.5,0.3-0.7c1.3-3,3.1-5.8,5.2-8.1c0.2-0.2,0.3-0.3,0.5-0.5c0.2-0.2,0.4-0.4,0.6-0.6c1-1,2.2-1.8,3.4-2.6
			c0.7-0.4,1.4-0.8,2.2-1c0.7-0.3,1.5-0.5,2.3-0.6c0.7-0.1,1.5-0.1,2.2,0.1c0.7,0.1,1.3,0.4,1.9,0.8c1.2,0.8,2.1,2.2,2.7,3.7
			c0.3,0.8,0.6,1.6,0.8,2.4c0.2,0.8,0.4,1.7,0.5,2.6c0,0.1,0,0.2,0,0.3c0.2,1.6,0.4,3.2,0.4,4.8c0.5,0.5,1,1,1.5,1.5
			c0.1-0.3,0.1-0.7,0.1-1c0.2-1.6,0.3-3.2,0.3-4.8C44.2,14.4,44.2,14,44.2,13.7z"/>
	</g>
</g>
</svg>
